<mxfile host="app.diagrams.net" agent="Mozilla/5.0 (Windows NT 10.0; Win64; x64) AppleWebKit/537.36 (KHTML, like Gecko) Chrome/127.0.0.0 Safari/537.36" version="24.7.6">
  <diagram id="C5RBs43oDa-KdzZeNtuy" name="Page-1">
    <mxGraphModel dx="704" dy="374" grid="1" gridSize="10" guides="1" tooltips="1" connect="1" arrows="1" fold="1" page="1" pageScale="1" pageWidth="827" pageHeight="1169" math="0" shadow="0">
      <root>
        <mxCell id="WIyWlLk6GJQsqaUBKTNV-0" />
        <mxCell id="WIyWlLk6GJQsqaUBKTNV-1" parent="WIyWlLk6GJQsqaUBKTNV-0" />
        <mxCell id="wGJwMHzibBWRTwQ6E8O0-2" value="" style="edgeStyle=orthogonalEdgeStyle;rounded=0;orthogonalLoop=1;jettySize=auto;html=1;" edge="1" parent="WIyWlLk6GJQsqaUBKTNV-1" source="wGJwMHzibBWRTwQ6E8O0-0" target="wGJwMHzibBWRTwQ6E8O0-1">
          <mxGeometry relative="1" as="geometry" />
        </mxCell>
        <mxCell id="wGJwMHzibBWRTwQ6E8O0-0" value="START" style="ellipse;whiteSpace=wrap;html=1;" vertex="1" parent="WIyWlLk6GJQsqaUBKTNV-1">
          <mxGeometry x="369" y="60" width="90" height="40" as="geometry" />
        </mxCell>
        <mxCell id="wGJwMHzibBWRTwQ6E8O0-4" value="" style="edgeStyle=orthogonalEdgeStyle;rounded=0;orthogonalLoop=1;jettySize=auto;html=1;" edge="1" parent="WIyWlLk6GJQsqaUBKTNV-1" source="wGJwMHzibBWRTwQ6E8O0-1" target="wGJwMHzibBWRTwQ6E8O0-3">
          <mxGeometry relative="1" as="geometry" />
        </mxCell>
        <mxCell id="wGJwMHzibBWRTwQ6E8O0-1" value="&lt;font style=&quot;font-size: 9px;&quot;&gt;INPUT USERNAME&lt;/font&gt;&lt;div style=&quot;font-size: 9px;&quot;&gt;&lt;font style=&quot;font-size: 9px;&quot;&gt;INPUT PASSWORD&lt;/font&gt;&lt;/div&gt;" style="shape=parallelogram;perimeter=parallelogramPerimeter;whiteSpace=wrap;html=1;fixedSize=1;" vertex="1" parent="WIyWlLk6GJQsqaUBKTNV-1">
          <mxGeometry x="354" y="130" width="120" height="40" as="geometry" />
        </mxCell>
        <mxCell id="wGJwMHzibBWRTwQ6E8O0-6" value="" style="edgeStyle=orthogonalEdgeStyle;rounded=0;orthogonalLoop=1;jettySize=auto;html=1;" edge="1" parent="WIyWlLk6GJQsqaUBKTNV-1" source="wGJwMHzibBWRTwQ6E8O0-3" target="wGJwMHzibBWRTwQ6E8O0-5">
          <mxGeometry relative="1" as="geometry" />
        </mxCell>
        <mxCell id="wGJwMHzibBWRTwQ6E8O0-10" value="YA" style="edgeLabel;html=1;align=center;verticalAlign=middle;resizable=0;points=[];" vertex="1" connectable="0" parent="wGJwMHzibBWRTwQ6E8O0-6">
          <mxGeometry x="-0.5031" relative="1" as="geometry">
            <mxPoint as="offset" />
          </mxGeometry>
        </mxCell>
        <mxCell id="wGJwMHzibBWRTwQ6E8O0-8" style="edgeStyle=orthogonalEdgeStyle;rounded=0;orthogonalLoop=1;jettySize=auto;html=1;" edge="1" parent="WIyWlLk6GJQsqaUBKTNV-1" source="wGJwMHzibBWRTwQ6E8O0-3">
          <mxGeometry relative="1" as="geometry">
            <mxPoint x="370" y="170" as="targetPoint" />
            <Array as="points">
              <mxPoint x="370" y="220" />
            </Array>
          </mxGeometry>
        </mxCell>
        <mxCell id="wGJwMHzibBWRTwQ6E8O0-11" value="TIDAK" style="edgeLabel;html=1;align=center;verticalAlign=middle;resizable=0;points=[];" vertex="1" connectable="0" parent="wGJwMHzibBWRTwQ6E8O0-8">
          <mxGeometry x="0.0597" y="-1" relative="1" as="geometry">
            <mxPoint as="offset" />
          </mxGeometry>
        </mxCell>
        <mxCell id="wGJwMHzibBWRTwQ6E8O0-3" value="DATA BENAR?" style="rhombus;whiteSpace=wrap;html=1;fontSize=9;" vertex="1" parent="WIyWlLk6GJQsqaUBKTNV-1">
          <mxGeometry x="387" y="190" width="54" height="60" as="geometry" />
        </mxCell>
        <mxCell id="wGJwMHzibBWRTwQ6E8O0-15" value="" style="edgeStyle=orthogonalEdgeStyle;rounded=0;orthogonalLoop=1;jettySize=auto;html=1;" edge="1" parent="WIyWlLk6GJQsqaUBKTNV-1" source="wGJwMHzibBWRTwQ6E8O0-5" target="wGJwMHzibBWRTwQ6E8O0-14">
          <mxGeometry relative="1" as="geometry" />
        </mxCell>
        <mxCell id="wGJwMHzibBWRTwQ6E8O0-5" value="MENU" style="rounded=0;whiteSpace=wrap;html=1;" vertex="1" parent="WIyWlLk6GJQsqaUBKTNV-1">
          <mxGeometry x="371" y="290" width="86" height="40" as="geometry" />
        </mxCell>
        <mxCell id="wGJwMHzibBWRTwQ6E8O0-12" value="STATISTIK" style="rounded=0;whiteSpace=wrap;html=1;" vertex="1" parent="WIyWlLk6GJQsqaUBKTNV-1">
          <mxGeometry x="441" y="430" width="86" height="40" as="geometry" />
        </mxCell>
        <mxCell id="wGJwMHzibBWRTwQ6E8O0-19" style="edgeStyle=orthogonalEdgeStyle;rounded=0;orthogonalLoop=1;jettySize=auto;html=1;exitX=1;exitY=0.5;exitDx=0;exitDy=0;" edge="1" parent="WIyWlLk6GJQsqaUBKTNV-1">
          <mxGeometry relative="1" as="geometry">
            <mxPoint x="489" y="430" as="targetPoint" />
            <mxPoint x="441" y="375" as="sourcePoint" />
            <Array as="points">
              <mxPoint x="489" y="375" />
            </Array>
          </mxGeometry>
        </mxCell>
        <mxCell id="wGJwMHzibBWRTwQ6E8O0-14" value="MAU&lt;div&gt;APA?&lt;/div&gt;" style="rhombus;whiteSpace=wrap;html=1;" vertex="1" parent="WIyWlLk6GJQsqaUBKTNV-1">
          <mxGeometry x="386" y="350" width="56" height="50" as="geometry" />
        </mxCell>
        <mxCell id="wGJwMHzibBWRTwQ6E8O0-23" style="edgeStyle=orthogonalEdgeStyle;rounded=0;orthogonalLoop=1;jettySize=auto;html=1;entryX=0;entryY=0.5;entryDx=0;entryDy=0;" edge="1" parent="WIyWlLk6GJQsqaUBKTNV-1" source="wGJwMHzibBWRTwQ6E8O0-17" target="wGJwMHzibBWRTwQ6E8O0-18">
          <mxGeometry relative="1" as="geometry" />
        </mxCell>
        <mxCell id="wGJwMHzibBWRTwQ6E8O0-17" value="CARI" style="rounded=0;whiteSpace=wrap;html=1;" vertex="1" parent="WIyWlLk6GJQsqaUBKTNV-1">
          <mxGeometry x="301" y="430" width="86" height="40" as="geometry" />
        </mxCell>
        <mxCell id="wGJwMHzibBWRTwQ6E8O0-25" value="" style="edgeStyle=orthogonalEdgeStyle;rounded=0;orthogonalLoop=1;jettySize=auto;html=1;" edge="1" parent="WIyWlLk6GJQsqaUBKTNV-1" source="wGJwMHzibBWRTwQ6E8O0-18" target="wGJwMHzibBWRTwQ6E8O0-24">
          <mxGeometry relative="1" as="geometry" />
        </mxCell>
        <mxCell id="wGJwMHzibBWRTwQ6E8O0-18" value="PILIH" style="rounded=0;whiteSpace=wrap;html=1;" vertex="1" parent="WIyWlLk6GJQsqaUBKTNV-1">
          <mxGeometry x="371" y="510" width="86" height="40" as="geometry" />
        </mxCell>
        <mxCell id="wGJwMHzibBWRTwQ6E8O0-20" style="edgeStyle=orthogonalEdgeStyle;rounded=0;orthogonalLoop=1;jettySize=auto;html=1;exitX=0;exitY=0.5;exitDx=0;exitDy=0;" edge="1" parent="WIyWlLk6GJQsqaUBKTNV-1" source="wGJwMHzibBWRTwQ6E8O0-14">
          <mxGeometry relative="1" as="geometry">
            <mxPoint x="349" y="430" as="targetPoint" />
            <mxPoint x="388" y="372" as="sourcePoint" />
            <Array as="points">
              <mxPoint x="349" y="375" />
            </Array>
          </mxGeometry>
        </mxCell>
        <mxCell id="wGJwMHzibBWRTwQ6E8O0-22" value="" style="endArrow=none;html=1;rounded=0;entryX=0.5;entryY=1;entryDx=0;entryDy=0;" edge="1" parent="WIyWlLk6GJQsqaUBKTNV-1" source="wGJwMHzibBWRTwQ6E8O0-18" target="wGJwMHzibBWRTwQ6E8O0-14">
          <mxGeometry width="50" height="50" relative="1" as="geometry">
            <mxPoint x="400" y="450" as="sourcePoint" />
            <mxPoint x="450" y="400" as="targetPoint" />
          </mxGeometry>
        </mxCell>
        <mxCell id="wGJwMHzibBWRTwQ6E8O0-28" style="edgeStyle=orthogonalEdgeStyle;rounded=0;orthogonalLoop=1;jettySize=auto;html=1;" edge="1" parent="WIyWlLk6GJQsqaUBKTNV-1" source="wGJwMHzibBWRTwQ6E8O0-24" target="wGJwMHzibBWRTwQ6E8O0-27">
          <mxGeometry relative="1" as="geometry" />
        </mxCell>
        <mxCell id="wGJwMHzibBWRTwQ6E8O0-24" value="ORDER" style="rounded=0;whiteSpace=wrap;html=1;" vertex="1" parent="WIyWlLk6GJQsqaUBKTNV-1">
          <mxGeometry x="371" y="580" width="86" height="40" as="geometry" />
        </mxCell>
        <mxCell id="wGJwMHzibBWRTwQ6E8O0-26" value="END" style="ellipse;whiteSpace=wrap;html=1;" vertex="1" parent="WIyWlLk6GJQsqaUBKTNV-1">
          <mxGeometry x="373" y="750" width="80" height="30" as="geometry" />
        </mxCell>
        <mxCell id="wGJwMHzibBWRTwQ6E8O0-27" value="TOTAL&lt;div&gt;HARGA&lt;/div&gt;" style="rounded=0;whiteSpace=wrap;html=1;" vertex="1" parent="WIyWlLk6GJQsqaUBKTNV-1">
          <mxGeometry x="371" y="650" width="86" height="40" as="geometry" />
        </mxCell>
        <mxCell id="wGJwMHzibBWRTwQ6E8O0-29" style="edgeStyle=orthogonalEdgeStyle;rounded=0;orthogonalLoop=1;jettySize=auto;html=1;entryX=0.522;entryY=0.014;entryDx=0;entryDy=0;entryPerimeter=0;" edge="1" parent="WIyWlLk6GJQsqaUBKTNV-1" source="wGJwMHzibBWRTwQ6E8O0-27" target="wGJwMHzibBWRTwQ6E8O0-26">
          <mxGeometry relative="1" as="geometry" />
        </mxCell>
        <mxCell id="wGJwMHzibBWRTwQ6E8O0-31" style="edgeStyle=orthogonalEdgeStyle;rounded=0;orthogonalLoop=1;jettySize=auto;html=1;entryX=1;entryY=0.5;entryDx=0;entryDy=0;" edge="1" parent="WIyWlLk6GJQsqaUBKTNV-1" source="wGJwMHzibBWRTwQ6E8O0-12" target="wGJwMHzibBWRTwQ6E8O0-26">
          <mxGeometry relative="1" as="geometry" />
        </mxCell>
      </root>
    </mxGraphModel>
  </diagram>
</mxfile>
